#!OML:ASF F:\VICON\USERDATA\INSTALL\rory3\rory3.ASF
:FULLY-SPECIFIED
:DEGREES
1253
root 9.10617 18.6539 1.48247 14.1516 -37.5681 -8.52001
lowerback 11.5021 -0.97878 -4.15174
upperback 5.66959 -1.8818 -3.63731
thorax -0.511853 -1.01561 -1.22189
lowerneck -6.45667 7.20722 -2.3618
upperneck 26.4802 9.76268 1.30424
head 9.17297 4.27779 1.73803
rclavicle -1.98785e-014 -4.29375e-014
rhumerus -4.34115 31.9478 -82.3744
rradius 126.13
rwrist -21.0842
rhand -27.6472 9.00054
rfingers 7.12502
rthumb -1.04521 339.023
lclavicle -1.98785e-014 -4.29375e-014
lhumerus -1.97395 -9.46655 88.9483
lradius 44.7192
lwrist -13.8769
lhand -37.2357 10.4691
lfingers 7.12502
lthumb -10.302 40.1968
rfemur -25.1194 14.39 20.9682
rtibia 23.0108
rfoot -10.0626 -22.8844
rtoes 1.90613
lfemur -19.9575 -12.068 2.61986
ltibia 42.0809
lfoot -5.82827 -7.71283
ltoes -14.249
1254
root 9.03073 18.6564 1.47924 13.9945 -37.4746 -8.58242
lowerback 11.5325 -0.964454 -4.025
upperback 5.67942 -1.84938 -3.5564
thorax -0.520236 -0.997843 -1.21179
lowerneck -6.56889 7.16829 -2.40087
upperneck 26.6192 9.71669 1.33436
head 9.23997 4.25128 1.75996
rclavicle -1.59028e-015 -1.59028e-014
rhumerus -4.4439 30.7201 -82.4782
rradius 125.845
rwrist -22.1545
rhand -27.12 8.42338
rfingers 7.12502
rthumb -0.536003 338.444
lclavicle -1.59028e-015 -1.59028e-014
lhumerus -2.30172 -9.11993 89.1414
lradius 45.0796
lwrist -14.0386
lhand -36.9518 11.0145
lfingers 7.12502
lthumb -10.0281 40.7555
rfemur -24.7839 14.0997 21.4005
rtibia 23.1226
rfoot -10.2577 -22.5964
rtoes 2.22247
lfemur -20.478 -11.5858 2.62353
ltibia 43.5221
lfoot -4.93738 -7.30342
ltoes -13.8885
1255
root 8.96099 18.6555 1.47333 13.9259 -37.3242 -8.72453
lowerback 11.6089 -0.97604 -3.79221
upperback 5.67347 -1.84286 -3.45364
thorax -0.572931 -0.990389 -1.23405
lowerneck -6.60006 7.1298 -2.41186
upperneck 26.6383 9.68464 1.27116
head 9.25663 4.22882 1.74001
rclavicle 3.97569e-014 5.24792e-014
rhumerus -4.60433 29.5632 -82.7594
rradius 125.563
rwrist -23.2671
rhand -26.5451 7.62393
rfingers 7.12502
rthumb 0.019291 337.644
lclavicle 3.97569e-014 5.24792e-014
lhumerus -2.66559 -8.8754 89.2702
lradius 45.4005
lwrist -14.1509
lhand -36.9953 11.4319
lfingers 7.12502
lthumb -10.0701 41.171
rfemur -24.5061 13.7933 21.8754
rtibia 23.2099
rfoot -10.4079 -22.3179
rtoes 2.74523
lfemur -21.1516 -11.1113 2.70305
ltibia 45.0713
lfoot -4.00738 -6.89747
ltoes -13.5445
1256
root 8.89498 18.6486 1.46668 13.9407 -37.0873 -8.92328
lowerback 11.6334 -1.01556 -3.48791
upperback 5.65716 -1.86087 -3.31084
thorax -0.609397 -0.994111 -1.25284
lowerneck -6.58356 7.08559 -2.46731
upperneck 26.6659 9.65083 1.20029
head 9.26553 4.20028 1.72242
rclavicle -3.97569e-014 3.49861e-014
rhumerus -4.84111 28.6629 -82.934
rradius 125.252
rwrist -24.2572
rhand -26.7251 7.37963
rfingers 7.12502
rthumb -0.154579 337.4
lclavicle -3.97569e-014 3.49861e-014
lhumerus -3.04432 -8.58037 89.4765
lradius 45.7058
lwrist -14.3235
lhand -37.4511 11.8867
lfingers 7.12502
lthumb -10.5098 41.6039
rfemur -24.3052 13.4545 22.3743
rtibia 23.3089
rfoot -10.6008 -22.0689
rtoes 3.16858
lfemur -22.0149 -10.4798 2.8632
ltibia 46.6768
lfoot -3.13621 -6.59913
ltoes -13.2627
1257
root 8.8289 18.6405 1.46283 13.9538 -36.8516 -9.10665
lowerback 11.5793 -1.0649 -3.231
upperback 5.65532 -1.89075 -3.13745
thorax -0.585444 -1.00567 -1.21407
lowerneck -6.56755 7.03753 -2.59942
upperneck 26.6837 9.636 1.07953
head 9.26991 4.16812 1.70185
rclavicle -3.18055e-015 -1.11319e-014
rhumerus -4.98095 28.1412 -82.7802
rradius 124.892
rwrist -25.2819
rhand -27.17 7.47654
rfingers 7.12502
rthumb -0.584291 337.498
lclavicle -3.18055e-015 -1.11319e-014
lhumerus -3.41605 -8.08587 89.7315
lradius 46.0374
lwrist -14.5705
lhand -37.4802 12.4742
lfingers 7.12502
lthumb -10.5378 42.1901
rfemur -24.1117 13.1937 22.8354
rtibia 23.4215
rfoot -10.9177 -21.9162
rtoes 3.0201
lfemur -22.8901 -9.76189 2.95623
ltibia 48.3051
lfoot -2.50208 -6.14384
ltoes -14.5207
